<svg viewBox="0 0 26 26" fill="none" xmlns="http://www.w3.org/2000/svg">
<path d="M12.6217 0C5.51078 0 0 5.19695 0 12.2164C0 15.8879 1.50871 19.0607 3.96449 21.2525C4.38852 21.6338 4.30117 21.8547 4.37328 24.2095C4.37896 24.3744 4.42491 24.5354 4.50712 24.6785C4.58932 24.8216 4.7053 24.9425 4.84492 25.0304C4.98454 25.1184 5.14357 25.1709 5.30814 25.1833C5.47271 25.1958 5.63782 25.1677 5.78906 25.1017C8.4759 23.9185 8.51043 23.825 8.96594 23.9489C16.7502 26.0914 25.1875 21.1098 25.1875 12.2164C25.1875 5.19695 19.7331 0 12.6217 0ZM20.2003 9.40113L16.4932 15.2699C16.3533 15.4906 16.1692 15.68 15.9526 15.8262C15.736 15.9725 15.4915 16.0724 15.2345 16.1197C14.9775 16.1671 14.7135 16.1608 14.459 16.1013C14.2045 16.0419 13.9651 15.9305 13.7556 15.7742L10.8063 13.5667C10.6744 13.4678 10.514 13.4144 10.3492 13.4144C10.1844 13.4144 10.024 13.4678 9.89219 13.5667L5.91246 16.5852C5.38129 16.9879 4.68559 16.3516 5.04359 15.7894L8.75063 9.92062C8.89056 9.69988 9.0746 9.51043 9.29119 9.36416C9.50778 9.21789 9.75227 9.11794 10.0093 9.0706C10.2663 9.02325 10.5304 9.02953 10.7849 9.08903C11.0394 9.14853 11.2788 9.25997 11.4882 9.41637L14.4366 11.6233C14.5685 11.7222 14.7288 11.7757 14.8936 11.7757C15.0584 11.7757 15.2188 11.7222 15.3507 11.6233L19.3324 8.60793C19.8626 8.20269 20.5583 8.83848 20.2003 9.40113Z" fill="#2F7DEE"/>
</svg>
