<svg viewBox="0 0 31 29" fill="none" xmlns="http://www.w3.org/2000/svg">
<path d="M29.5909 7.45497H25.31L26.7234 2.18353C26.9249 1.43245 26.4795 0.658931 25.7272 0.457423C24.9748 0.255916 24.201 0.702535 24.0011 1.45361L22.3934 7.45497H12.3859L13.7993 2.18353C14.0008 1.43245 13.5555 0.658931 12.8031 0.457423C12.0505 0.257464 11.2785 0.702535 11.0783 1.45361L9.46905 7.45497H4.22727C3.44937 7.45497 2.81827 8.08478 2.81827 8.86398C2.81827 9.64343 3.44937 10.2732 4.22727 10.2732H8.7123L6.44515 18.7278H1.40901C0.631356 18.7278 0 19.3576 0 20.1368C0 20.916 0.631356 21.5458 1.40901 21.5458H5.68995L4.27655 26.8172C4.07505 27.5683 4.52038 28.3418 5.27274 28.5433C5.394 28.5759 5.51656 28.5913 5.63628 28.5913C6.25783 28.5913 6.82855 28.177 6.99626 27.5472L8.60677 21.5458H18.614L17.2006 26.8172C16.9994 27.5683 17.4445 28.3418 18.1971 28.5433C18.3181 28.5759 18.4407 28.5913 18.5619 28.5913C19.1835 28.5913 19.7539 28.177 19.9216 27.5472L21.5309 21.5458H26.7726C27.5506 21.5458 28.1819 20.916 28.1819 20.1368C28.1819 19.3576 27.5506 18.7278 26.7726 18.7278H22.2876L24.5548 10.2732H29.5909C30.3688 10.2732 30.9999 9.64343 30.9999 8.86398C30.9999 8.08478 30.3688 7.45497 29.5909 7.45497ZM19.3692 18.7278H9.36198L11.6291 10.2732H21.6367L19.3692 18.7278Z" fill="white"/>
</svg>
