<svg xmlns="http://www.w3.org/2000/svg" width="247" height="240" fill="none" viewBox="0 0 347 259"><path fill="#fff" d="M303.329 54.6054H303.28L275.217 67.6208L236.82 85.4287C236.67 85.4972 236.509 85.5329 236.346 85.5339C236.184 85.5348 236.022 85.5008 235.872 85.434L196.258 67.5836L167.505 54.6266L167.461 54.6054H167.412C166.959 54.6059 166.524 54.8019 166.203 55.1503C165.882 55.4988 165.702 55.9712 165.701 56.464V137.18C165.702 137.672 165.882 138.145 166.203 138.493C166.524 138.842 166.959 139.038 167.412 139.038H303.329C303.783 139.038 304.218 138.842 304.538 138.493C304.859 138.145 305.04 137.672 305.04 137.18V56.464C305.04 55.9712 304.859 55.4988 304.538 55.1503C304.218 54.8019 303.783 54.6059 303.329 54.6054Z"/><path fill="#3F3D56" d="M303.451 55.1364C303.401 55.1364 303.352 55.1198 303.311 55.0888L235.705 3.9503C235.5 3.7954 235.255 3.71262 235.005 3.71308C234.754 3.71354 234.51 3.79723 234.305 3.95289L167.186 55.0883C167.133 55.1284 167.067 55.1441 167.004 55.1318C166.94 55.1195 166.883 55.0803 166.846 55.0228C166.809 54.9653 166.794 54.8941 166.805 54.8249C166.816 54.7556 166.852 54.694 166.905 54.6535L234.024 3.51808C234.312 3.30019 234.653 3.18306 235.004 3.18244C235.354 3.18181 235.697 3.29772 235.985 3.51458L303.591 54.6529C303.633 54.6853 303.665 54.7316 303.682 54.7851C303.699 54.8386 303.7 54.8965 303.684 54.9505C303.669 55.0044 303.637 55.0515 303.595 55.0849C303.554 55.1184 303.503 55.1364 303.451 55.1364H303.451Z"/><path fill="#E6E6E6" d="M171.021 56.9493L235.071 5.39136L299.607 60.6177L238.371 100.046L205.126 91.8155L171.021 56.9493Z"/><path fill="#39C555" d="M207.932 124.399H176.29C175.898 124.4 175.522 124.232 175.244 123.931C174.966 123.63 174.81 123.222 174.81 122.796C174.809 122.37 174.964 121.962 175.241 121.66C175.518 121.359 175.894 121.189 176.286 121.188H207.932C208.324 121.188 208.701 121.356 208.978 121.657C209.256 121.957 209.412 122.366 209.413 122.791C209.413 123.217 209.258 123.626 208.981 123.927C208.705 124.229 208.329 124.399 207.937 124.399H207.932Z"/><path fill="#39C555" d="M187.643 117.496H176.29C175.898 117.497 175.522 117.328 175.245 117.027C174.967 116.727 174.811 116.319 174.811 115.893C174.81 115.467 174.965 115.059 175.242 114.757C175.518 114.456 175.894 114.286 176.286 114.285H187.643C187.837 114.284 188.029 114.326 188.209 114.406C188.388 114.486 188.552 114.604 188.689 114.753C188.827 114.902 188.936 115.079 189.011 115.274C189.085 115.468 189.124 115.677 189.124 115.888C189.124 116.099 189.086 116.308 189.012 116.503C188.938 116.698 188.829 116.875 188.692 117.025C188.555 117.174 188.392 117.292 188.213 117.373C188.033 117.454 187.841 117.496 187.647 117.496H187.643Z"/><path fill="#fff" d="M235.972 85.6662C235.731 85.6665 235.493 85.6158 235.271 85.517L195.769 67.7147V11.9907C195.77 11.4979 195.95 11.0255 196.271 10.6771C196.592 10.3287 197.027 10.1327 197.48 10.1321H273.261C273.715 10.1327 274.15 10.3287 274.47 10.6771C274.791 11.0255 274.972 11.4979 274.972 11.9907V67.7536L274.898 67.7881L236.695 85.5083C236.466 85.6127 236.22 85.6664 235.972 85.6662Z"/><path fill="#3F3D56" d="M235.972 85.7988C235.716 85.7991 235.462 85.7452 235.224 85.6399L195.647 67.8034V11.9907C195.648 11.4627 195.841 10.9566 196.185 10.5832C196.528 10.2099 196.994 9.99993 197.48 9.99933H273.261C273.747 9.99993 274.213 10.2099 274.557 10.5832C274.901 10.9566 275.094 11.4627 275.095 11.9907V67.8413L236.743 85.6303C236.499 85.7418 236.237 85.7991 235.972 85.7988ZM196.136 67.4487L235.411 85.1489C235.777 85.3104 236.187 85.3077 236.552 85.1415L274.606 67.4907V11.9907C274.605 11.6035 274.463 11.2323 274.211 10.9586C273.959 10.6848 273.618 10.5308 273.261 10.5304H197.48C197.124 10.5308 196.782 10.6848 196.53 10.9586C196.278 11.2323 196.136 11.6035 196.136 11.9907L196.136 67.4487Z"/><path fill="#3F3D56" d="M302.962 54.6054H302.913L274.85 67.6208L236.454 85.4287C236.304 85.4972 236.142 85.5329 235.98 85.5339C235.817 85.5348 235.656 85.5008 235.505 85.434L195.891 67.5836L167.139 54.6266L167.095 54.6054H167.046C166.592 54.6059 166.157 54.8019 165.836 55.1503C165.515 55.4988 165.335 55.9712 165.334 56.464V137.18C165.335 137.672 165.515 138.145 165.836 138.493C166.157 138.842 166.592 139.038 167.046 139.038H302.962C303.416 139.038 303.851 138.842 304.172 138.493C304.492 138.145 304.673 137.672 304.673 137.18V56.464C304.673 55.9712 304.492 55.4988 304.172 55.1503C303.851 54.8019 303.416 54.6059 302.962 54.6054ZM304.184 137.18C304.184 137.532 304.055 137.869 303.826 138.118C303.597 138.367 303.286 138.507 302.962 138.507H167.046C166.722 138.507 166.411 138.367 166.182 138.118C165.952 137.869 165.824 137.532 165.823 137.18V56.464C165.824 56.1207 165.946 55.7908 166.166 55.5434C166.385 55.296 166.683 55.1502 166.999 55.1364L195.891 68.1571L235.317 85.9252C235.744 86.1138 236.222 86.1109 236.647 85.9172L274.85 68.1969L303.011 55.1364C303.326 55.1512 303.624 55.2974 303.843 55.5447C304.061 55.792 304.184 56.1212 304.184 56.464V137.18Z"/><path fill="#39C555" d="M229.822 30.9619H202.932C202.414 30.9611 201.917 30.737 201.551 30.3387C201.185 29.9405 200.979 29.4006 200.979 28.8378C200.979 28.275 201.185 27.7352 201.551 27.3369C201.917 26.9387 202.414 26.7145 202.932 26.7137H229.822C230.341 26.7145 230.837 26.9387 231.203 27.3369C231.57 27.7352 231.775 28.275 231.775 28.8378C231.775 29.4006 231.57 29.9405 231.203 30.3387C230.837 30.737 230.341 30.9611 229.822 30.9619Z"/><path fill="#39C555" d="M215.888 21.9345H202.932C202.414 21.9345 201.916 21.7107 201.549 21.3124C201.183 20.914 200.977 20.3737 200.977 19.8104C200.977 19.2471 201.183 18.7068 201.549 18.3084C201.916 17.9101 202.414 17.6863 202.932 17.6863H215.888C216.407 17.6863 216.904 17.9101 217.271 18.3084C217.638 18.7068 217.844 19.2471 217.844 19.8104C217.844 20.3737 217.638 20.914 217.271 21.3124C216.904 21.7107 216.407 21.9345 215.888 21.9345Z"/><path fill="#CCC" d="M255.483 52.2028H214.414C213.896 52.202 213.399 51.9779 213.033 51.5796C212.667 51.1814 212.461 50.6416 212.461 50.0787C212.461 49.5159 212.667 48.9761 213.033 48.5779C213.399 48.1796 213.896 47.9554 214.414 47.9547H255.483C256.001 47.9554 256.497 48.1796 256.864 48.5779C257.23 48.9761 257.435 49.5159 257.435 50.0787C257.435 50.6416 257.23 51.1814 256.864 51.5796C256.497 51.9779 256.001 52.202 255.483 52.2028Z"/><path fill="#CCC" d="M255.482 62.0268H214.414C213.895 62.0268 213.398 61.803 213.031 61.4047C212.665 61.0063 212.458 60.466 212.458 59.9027C212.458 59.3393 212.665 58.7991 213.031 58.4007C213.398 58.0024 213.895 57.7786 214.414 57.7786H255.482C256.001 57.7786 256.499 58.0024 256.865 58.4007C257.232 58.7991 257.438 59.3393 257.438 59.9027C257.438 60.466 257.232 61.0063 256.865 61.4047C256.499 61.803 256.001 62.0268 255.482 62.0268Z"/><path fill="#39C555" d="M302.204 75.5724C312.474 75.5724 320.8 66.5298 320.8 55.375C320.8 44.2203 312.474 35.1777 302.204 35.1777C291.934 35.1777 283.609 44.2203 283.609 55.375C283.609 66.5298 291.934 75.5724 302.204 75.5724Z"/><path fill="#fff" d="M300.432 63.9011L294.867 56.1281L298.103 53.3938L300.738 57.0742L309.641 46.8666L312.618 49.9301L300.432 63.9011Z"/><path fill="#9F616A" d="M94.1195 174.746C93.7951 174.228 93.5794 173.638 93.4874 173.019C93.3955 172.401 93.4296 171.767 93.5873 171.164C93.745 170.562 94.0225 170.004 94.4003 169.53C94.778 169.056 95.2468 168.678 95.7737 168.422L94.5643 153.243L100.973 157.015L101.139 170.851C101.476 171.841 101.467 172.931 101.113 173.914C100.76 174.897 100.087 175.705 99.2218 176.185C98.3566 176.665 97.3593 176.784 96.4189 176.519C95.4785 176.253 94.6604 175.623 94.1195 174.746H94.1195Z"/><path fill="#E5E5E5" d="M95.3337 165.143L95.2817 165L88.2112 145.599L87.0894 108.824L87.2778 108.81C88.6585 108.702 90.0449 108.896 91.3557 109.379C92.6665 109.862 93.8753 110.625 94.9109 111.622C95.9466 112.62 96.7883 113.832 97.3866 115.188C97.9849 116.543 98.3277 118.015 98.395 119.517L99.4319 139.289L102.372 164.718L95.3337 165.143Z"/><path fill="#9F616A" d="M50.1675 246.227L54.2319 249.026L66.1053 233.329L60.1064 229.199L50.1675 246.227Z"/><path fill="#2F2E41" d="M49.9719 244.071L57.9765 249.583L57.9769 249.583C59.3297 250.515 60.2863 251.992 60.6365 253.69C60.9866 255.388 60.7015 257.167 59.8438 258.637L59.7387 258.817L46.6328 249.792L49.9719 244.071Z"/><path fill="#9F616A" d="M88.595 253.75L93.4076 253.749L95.697 233.587L88.5942 233.588L88.595 253.75Z"/><path fill="#2F2E41" d="M87.3677 252.043L96.8454 252.043H96.8458C98.4476 252.043 99.9838 252.734 101.116 253.964C102.249 255.195 102.886 256.863 102.886 258.603V258.816L87.368 258.817L87.3677 252.043Z"/><path fill="#2F2E41" d="M74.978 169.273L86.3079 243.29C86.3079 243.29 84.079 249.342 87.4223 250.149C90.7655 250.956 98.1949 249.342 98.1949 249.342C98.1949 249.342 100.424 243.29 97.0805 242.483L90.7655 165.146L74.978 169.273Z"/><path fill="#2F2E41" d="M81.6644 170.593L73.8152 205.203L53.8041 236.762C53.8041 236.762 46.3747 237.569 50.4608 242.007C54.547 246.445 56.4044 246.849 56.4044 246.849C56.4044 246.849 62.7194 246.042 62.3479 242.814L86.9502 211.361L98.3805 169.383L81.6644 170.593Z"/><path fill="#E5E5E5" d="M74.8145 173.641L72.9189 161.891C70.0643 158.651 75.458 150.639 76.0594 149.769L75.7065 144.786C75.4058 144.731 75.1307 144.568 74.9243 144.324C73.1535 142.362 73.2725 134.624 73.2784 134.295L71.3242 112.216L76.1862 109.135L88.4816 108.705L94.4862 114.357L100.269 172.066L100.063 172.078L74.8145 173.641Z"/><path fill="#9F616A" d="M79.0701 177.762C78.5746 177.441 78.1499 177.005 77.826 176.487C77.5021 175.968 77.2868 175.378 77.1954 174.759C77.1039 174.141 77.1386 173.507 77.2968 172.905C77.455 172.302 77.733 171.744 78.1111 171.271L71.1138 158.066L78.3898 158.546L83.9191 171.012C84.6093 171.755 85.0247 172.747 85.0866 173.8C85.1484 174.853 84.8525 175.894 84.2548 176.726C83.6571 177.558 82.7992 178.123 81.8436 178.314C80.8881 178.505 79.9012 178.308 79.0701 177.762H79.0701Z"/><path fill="#E5E5E5" d="M72.8735 165.414L66.8374 150.217L65.8287 119.173C65.7942 118.153 66.0177 117.142 66.4749 116.25C66.9321 115.359 67.6056 114.62 68.4222 114.115L75.3855 109.493L76.8879 142.129L81.3812 161.634L72.8735 165.414Z"/><path fill="#9F616A" d="M83.7062 105.76C88.4776 105.76 92.3456 101.559 92.3456 96.3769C92.3456 91.1945 88.4776 86.9933 83.7062 86.9933C78.9349 86.9933 75.0669 91.1945 75.0669 96.3769C75.0669 101.559 78.9349 105.76 83.7062 105.76Z"/><path fill="#2F2E41" d="M86.8301 82.5215C78.1293 79.7963 75.6596 87.629 75.6596 87.629C71.4657 90.651 74.0914 94.44 74.0914 94.44C73.0332 94.6953 75.1491 101.421 75.8547 101.251C76.2311 101.16 77.1991 102.415 78.0202 103.606C78.3017 103.605 78.5826 103.635 78.8589 103.693L77.2659 97.2924C77.2659 97.2924 82.6355 96.3989 84.2818 93.5894C85.8569 90.9016 91.0419 90.0529 92.5175 91.8483C92.6048 91.3321 92.7835 90.8392 93.0438 90.397C93.2453 90.0611 93.5087 89.7742 93.8175 89.5545C92.5128 83.5326 86.8301 82.5215 86.8301 82.5215Z"/><path fill="#000" d="M77.0275 130.238L76.5454 148.918L82.5286 162.615L77.0275 129.742" opacity=".2"/><path fill="#F1F1F1" d="M129.28 20.1578C129.154 20.0763 129.008 20.0353 128.861 20.0395C128.713 20.0437 128.57 20.0929 128.447 20.1815C128.324 20.2701 128.227 20.3945 128.166 20.5404C128.105 20.6864 128.084 20.8479 128.104 21.0066L128.71 25.8345C128.718 25.9056 128.714 25.9779 128.697 26.0472C128.678 26.1155 128.646 26.1788 128.603 26.2332L125.209 30.6007C125.096 30.7412 125.029 30.9192 125.02 31.1058C125.011 31.2924 125.06 31.477 125.159 31.6297L125.163 31.6353C125.258 31.7897 125.398 31.9051 125.56 31.9632C125.722 32.0213 125.898 32.0188 126.059 31.9559L128.51 31.0522C128.591 31.0231 128.678 31.0184 128.762 31.0388C128.845 31.0592 128.922 31.1039 128.984 31.1681C129.03 31.2146 129.067 31.2709 129.092 31.3336C129.117 31.3963 129.13 31.464 129.13 31.5323L129.226 41.0185C129.227 41.1558 129.259 41.2908 129.319 41.4118C129.378 41.5328 129.464 41.6362 129.569 41.713C129.674 41.7896 129.794 41.8379 129.919 41.8537C130.044 41.8696 130.171 41.8525 130.289 41.804L148.584 34.2043C148.722 34.1472 148.842 34.0491 148.931 33.9211C149.02 33.7931 149.074 33.6405 149.087 33.4808C149.099 33.321 149.07 33.1607 149.002 33.0182C148.935 32.8756 148.831 32.7567 148.704 32.6751L148.455 32.5144L129.28 20.1578V20.1578ZM128.413 20.9602C128.402 20.8649 128.415 20.768 128.451 20.6805C128.488 20.5929 128.547 20.5184 128.62 20.4653C128.694 20.4122 128.78 20.3828 128.869 20.3804C128.957 20.378 129.045 20.4027 129.121 20.4517L148.29 32.8047L148.545 32.969C148.621 33.0182 148.682 33.0896 148.722 33.175C148.763 33.2603 148.78 33.3563 148.773 33.4519C148.765 33.5475 148.733 33.6389 148.68 33.7156C148.627 33.7924 148.555 33.8515 148.473 33.8861L130.178 41.4858C130.107 41.5151 130.031 41.5253 129.955 41.5157C129.88 41.5061 129.808 41.4769 129.746 41.4306C129.683 41.3844 129.632 41.3224 129.596 41.2499C129.56 41.1775 129.541 41.0967 129.54 41.0145L129.444 31.5284C129.444 31.4346 129.429 31.3414 129.4 31.253L148.027 33.5775C148.099 33.5874 148.173 33.5694 148.235 33.5266C148.296 33.4838 148.342 33.4189 148.365 33.3432C148.387 33.2675 148.384 33.1857 148.357 33.1119C148.33 33.0382 148.279 32.9771 148.215 32.9393C148.199 32.9298 148.183 32.9221 148.166 32.9161L129.025 25.9764C129.03 25.9136 129.028 25.8504 129.019 25.7881L128.413 20.9602L128.413 20.9602Z"/><path fill="#E5E5E5" d="M129.28 20.1578C129.154 20.0763 129.008 20.0353 128.861 20.0395C128.713 20.0437 128.57 20.0929 128.447 20.1815C128.324 20.2701 128.227 20.3945 128.166 20.5404C128.105 20.6864 128.084 20.8479 128.104 21.0066L128.71 25.8345C128.718 25.9056 128.714 25.9779 128.697 26.0472C128.678 26.1155 128.646 26.1788 128.603 26.2332L125.209 30.6007C125.096 30.7412 125.029 30.9192 125.02 31.1058C125.011 31.2924 125.06 31.477 125.159 31.6297L125.163 31.6353C125.258 31.7897 125.398 31.9051 125.56 31.9632C125.722 32.0213 125.898 32.0188 126.059 31.9559L128.51 31.0522C128.591 31.0231 128.678 31.0184 128.762 31.0388C128.845 31.0592 128.922 31.1039 128.984 31.1681C129.03 31.2146 129.067 31.2709 129.092 31.3336C129.117 31.3963 129.13 31.464 129.13 31.5323L129.226 41.0185C129.227 41.1558 129.259 41.2908 129.319 41.4118C129.378 41.5328 129.464 41.6362 129.569 41.713C129.674 41.7896 129.794 41.8379 129.919 41.8537C130.044 41.8696 130.171 41.8525 130.289 41.804L148.584 34.2043C148.722 34.1472 148.842 34.0491 148.931 33.9211C149.02 33.7931 149.074 33.6405 149.087 33.4808C149.099 33.321 149.07 33.1607 149.002 33.0182C148.935 32.8756 148.831 32.7567 148.704 32.6751L148.455 32.5144L129.28 20.1578V20.1578ZM128.413 20.9602C128.402 20.8649 128.415 20.768 128.451 20.6805C128.488 20.5929 128.547 20.5184 128.62 20.4653C128.694 20.4122 128.78 20.3828 128.869 20.3804C128.957 20.378 129.045 20.4027 129.121 20.4517L148.29 32.8047L148.545 32.969C148.621 33.0182 148.682 33.0896 148.722 33.175C148.763 33.2603 148.78 33.3563 148.773 33.4519C148.765 33.5475 148.733 33.6389 148.68 33.7156C148.627 33.7924 148.555 33.8515 148.473 33.8861L130.178 41.4858C130.107 41.5151 130.031 41.5253 129.955 41.5157C129.88 41.5061 129.808 41.4769 129.746 41.4306C129.683 41.3844 129.632 41.3224 129.596 41.2499C129.56 41.1775 129.541 41.0967 129.54 41.0145L129.444 31.5284C129.444 31.4346 129.429 31.3414 129.4 31.253C129.359 31.1257 129.29 31.0112 129.199 30.9195C129.187 30.906 129.173 30.8935 129.16 30.881L129.159 30.8796C129.056 30.7875 128.933 30.7254 128.802 30.6992C128.671 30.673 128.536 30.6837 128.41 30.7301L125.957 31.6348C125.861 31.6729 125.755 31.6744 125.657 31.6391C125.56 31.6038 125.476 31.5337 125.42 31.4402L125.418 31.4374C125.358 31.3461 125.328 31.2353 125.334 31.1232C125.339 31.0111 125.379 30.9043 125.448 30.8205L128.843 26.4531C128.879 26.4073 128.91 26.3573 128.936 26.3039L128.938 26.303C128.963 26.2519 128.983 26.198 128.997 26.1423C129.012 26.0882 129.021 26.0327 129.025 25.9764C129.03 25.9136 129.028 25.8505 129.019 25.7881L128.413 20.9603V20.9602Z"/><path fill="#E5E5E5" d="M129.025 25.9764L148.166 32.916C148.183 32.922 148.199 32.9298 148.215 32.9392C148.279 32.9771 148.33 33.0381 148.357 33.1119C148.384 33.1856 148.387 33.2675 148.365 33.3432C148.342 33.4189 148.296 33.4837 148.235 33.5265C148.173 33.5693 148.099 33.5873 148.027 33.5775L129.4 31.2529L129.071 31.2123L129.108 30.8744L129.159 30.8796L129.16 30.8809L148.062 33.2382L128.937 26.3029L128.936 26.3039L128.854 26.2729L128.953 25.9498L129.025 25.9764Z"/><path fill="#F1F1F1" d="M342.739 0.118735L323.564 12.4754L323.315 12.6361C323.188 12.7177 323.084 12.8366 323.017 12.9791C322.949 13.1216 322.92 13.282 322.933 13.4417C322.945 13.6014 322.999 13.7541 323.088 13.8821C323.177 14.01 323.297 14.1082 323.435 14.1652L341.731 21.7649C341.848 21.8134 341.975 21.8305 342.1 21.8147C342.226 21.7988 342.345 21.7506 342.45 21.6739C342.555 21.5971 342.641 21.4937 342.7 21.3727C342.76 21.2517 342.792 21.1167 342.793 20.9794L342.889 11.4933C342.889 11.4249 342.902 11.3572 342.927 11.2945C342.952 11.2319 342.989 11.1755 343.035 11.129C343.097 11.0648 343.174 11.0202 343.257 10.9998C343.341 10.9794 343.428 10.984 343.509 11.0132L345.96 11.9169C346.121 11.9797 346.297 11.9823 346.459 11.9242C346.622 11.8661 346.761 11.7506 346.856 11.5962L346.86 11.5906C346.959 11.4379 347.008 11.2534 346.999 11.0667C346.99 10.8801 346.923 10.7022 346.81 10.5616L343.416 6.19411C343.373 6.13972 343.342 6.07643 343.323 6.00818C343.306 5.93885 343.301 5.86659 343.309 5.7954L343.915 0.967557C343.935 0.808872 343.914 0.647304 343.853 0.501365C343.792 0.355427 343.695 0.23103 343.572 0.142429C343.449 0.0538274 343.306 0.00460556 343.158 0.000414068C343.011 -0.00377743 342.866 0.0372292 342.739 0.118728V0.118735ZM343.606 0.92119L343 5.74902C342.991 5.81138 342.989 5.87456 342.994 5.93737L323.853 12.877C323.836 12.883 323.82 12.8908 323.804 12.9002C323.74 12.938 323.689 12.9991 323.662 13.0729C323.635 13.1466 323.632 13.2284 323.654 13.3041C323.677 13.3799 323.723 13.4447 323.784 13.4875C323.846 13.5303 323.92 13.5483 323.992 13.5384L342.619 11.2139C342.59 11.3023 342.575 11.3955 342.575 11.4894L342.479 20.9754C342.478 21.0576 342.459 21.1384 342.423 21.2109C342.387 21.2833 342.336 21.3453 342.273 21.3916C342.211 21.4378 342.139 21.467 342.064 21.4766C341.989 21.4862 341.912 21.476 341.842 21.4468L323.546 13.847C323.464 13.8124 323.392 13.7533 323.339 13.6766C323.286 13.5998 323.254 13.5084 323.247 13.4128C323.239 13.3172 323.257 13.2213 323.297 13.1359C323.337 13.0505 323.399 12.9792 323.474 12.9299L323.73 12.7656L342.898 0.412646C342.974 0.363651 343.062 0.338942 343.15 0.341343C343.239 0.343744 343.325 0.37316 343.399 0.426224C343.473 0.479287 343.531 0.553851 343.568 0.641383C343.604 0.728915 343.617 0.825878 343.606 0.921164V0.92119Z"/><path fill="#E5E5E5" d="M342.739 0.118735L323.564 12.4754L323.315 12.6361C323.188 12.7177 323.084 12.8366 323.017 12.9791C322.949 13.1216 322.92 13.282 322.933 13.4417C322.945 13.6014 322.999 13.7541 323.088 13.8821C323.177 14.01 323.297 14.1082 323.435 14.1652L341.731 21.7649C341.848 21.8134 341.975 21.8305 342.1 21.8147C342.226 21.7988 342.345 21.7506 342.45 21.6739C342.555 21.5971 342.641 21.4937 342.7 21.3727C342.76 21.2517 342.792 21.1167 342.793 20.9794L342.889 11.4933C342.889 11.4249 342.902 11.3572 342.927 11.2945C342.952 11.2319 342.989 11.1755 343.035 11.129C343.097 11.0648 343.174 11.0202 343.257 10.9998C343.341 10.9794 343.428 10.984 343.509 11.0132L345.96 11.9169C346.121 11.9797 346.297 11.9823 346.459 11.9242C346.622 11.8661 346.761 11.7506 346.856 11.5962L346.86 11.5906C346.959 11.4379 347.008 11.2534 346.999 11.0667C346.99 10.8801 346.923 10.7022 346.81 10.5616L343.416 6.19411C343.373 6.13972 343.342 6.07643 343.323 6.00818C343.306 5.93885 343.301 5.86659 343.309 5.7954L343.915 0.967557C343.935 0.808872 343.914 0.647304 343.853 0.501365C343.792 0.355427 343.695 0.23103 343.572 0.142429C343.449 0.0538274 343.306 0.00460556 343.158 0.000414068C343.011 -0.00377743 342.866 0.0372292 342.739 0.118728V0.118735ZM343.606 0.92119L343 5.74903C342.991 5.81139 342.989 5.87457 342.994 5.93738C342.998 5.99358 343.007 6.04919 343.022 6.10324C343.036 6.15894 343.056 6.2128 343.082 6.26391L343.083 6.26487C343.109 6.31825 343.14 6.36827 343.177 6.41401L346.571 10.7814C346.64 10.8653 346.68 10.972 346.686 11.0841C346.691 11.1963 346.661 11.3071 346.601 11.3984L346.599 11.4012C346.543 11.4946 346.459 11.5647 346.362 11.6C346.264 11.6353 346.159 11.6338 346.062 11.5957L343.609 10.6911C343.483 10.6446 343.348 10.634 343.217 10.6601C343.086 10.6863 342.963 10.7484 342.86 10.8406L342.859 10.8419C342.846 10.8545 342.832 10.867 342.82 10.8804C342.729 10.9722 342.66 11.0867 342.619 11.2139C342.59 11.3023 342.575 11.3955 342.575 11.4894L342.479 20.9754C342.478 21.0576 342.459 21.1384 342.423 21.2108C342.387 21.2833 342.336 21.3453 342.273 21.3916C342.211 21.4378 342.139 21.467 342.064 21.4766C341.989 21.4862 341.912 21.476 341.842 21.4468L323.546 13.847C323.464 13.8124 323.392 13.7533 323.339 13.6766C323.286 13.5998 323.254 13.5084 323.247 13.4128C323.239 13.3172 323.257 13.2213 323.297 13.1359C323.337 13.0505 323.399 12.9792 323.474 12.9299L323.73 12.7656L342.898 0.412653C342.974 0.363658 343.062 0.338949 343.15 0.341349C343.239 0.34375 343.325 0.373167 343.399 0.42623C343.472 0.479294 343.531 0.553858 343.568 0.641389C343.604 0.728921 343.617 0.825885 343.606 0.92117V0.92119Z"/><path fill="#E5E5E5" d="M343.066 5.91083L343.166 6.23387L343.083 6.26487L343.082 6.26391L323.957 13.1992L342.86 10.8419L342.861 10.8406L342.911 10.8354L342.948 11.1733L342.619 11.2139L323.992 13.5385C323.92 13.5483 323.846 13.5303 323.785 13.4875C323.723 13.4447 323.677 13.3799 323.655 13.3042C323.632 13.2285 323.635 13.1466 323.662 13.0729C323.69 12.9991 323.74 12.9381 323.804 12.9002C323.82 12.8908 323.836 12.883 323.853 12.877L342.994 5.9374L343.066 5.91083Z"/><path fill="#F1F1F1" d="M178.659 172.771C178.528 172.844 178.418 172.956 178.343 173.094C178.267 173.231 178.229 173.389 178.232 173.549C178.235 173.709 178.28 173.865 178.361 173.999C178.442 174.133 178.557 174.239 178.691 174.305L182.772 176.329C182.831 176.359 182.885 176.402 182.93 176.455C182.973 176.509 183.005 176.572 183.025 176.64L184.61 182.09C184.659 182.269 184.761 182.425 184.902 182.533C185.042 182.641 185.212 182.695 185.384 182.686L185.39 182.685C185.561 182.681 185.726 182.614 185.858 182.496C185.99 182.378 186.081 182.215 186.119 182.034L186.725 179.301C186.746 179.211 186.789 179.128 186.849 179.063C186.91 178.997 186.986 178.95 187.069 178.928C187.13 178.91 187.193 178.906 187.255 178.917C187.318 178.927 187.377 178.951 187.43 178.988L194.863 183.97C194.971 184.042 195.093 184.085 195.219 184.095C195.345 184.105 195.472 184.081 195.587 184.026C195.703 183.971 195.804 183.887 195.884 183.78C195.963 183.674 196.017 183.548 196.043 183.414L199.906 162.557C199.936 162.4 199.923 162.237 199.871 162.087C199.819 161.937 199.729 161.806 199.612 161.709C199.494 161.612 199.354 161.553 199.207 161.539C199.06 161.525 198.912 161.556 198.781 161.629L198.522 161.772L178.659 172.771ZM178.82 173.996C178.74 173.956 178.671 173.892 178.623 173.812C178.574 173.731 178.547 173.638 178.546 173.542C178.544 173.446 178.567 173.351 178.612 173.268C178.658 173.186 178.724 173.119 178.802 173.075L198.66 162.079L198.924 161.933C199.003 161.89 199.091 161.871 199.179 161.88C199.267 161.889 199.351 161.924 199.421 161.982C199.492 162.04 199.546 162.118 199.577 162.208C199.609 162.297 199.616 162.395 199.599 162.489L195.736 183.346C195.721 183.427 195.688 183.502 195.64 183.566C195.592 183.63 195.531 183.68 195.462 183.713C195.392 183.746 195.317 183.76 195.241 183.754C195.166 183.748 195.093 183.723 195.028 183.679L187.595 178.698C187.522 178.648 187.442 178.611 187.357 178.591L199.121 162.734C199.167 162.672 199.192 162.595 199.192 162.516C199.192 162.436 199.166 162.359 199.119 162.298C199.072 162.237 199.007 162.196 198.935 162.182C198.863 162.167 198.788 162.181 198.725 162.22C198.709 162.229 198.694 162.24 198.68 162.252L183.051 176.115C183.004 176.078 182.954 176.046 182.901 176.02L178.82 173.996Z"/><path fill="#E5E5E5" d="M178.659 172.771C178.528 172.844 178.418 172.956 178.343 173.094C178.267 173.231 178.229 173.389 178.232 173.549C178.235 173.709 178.28 173.865 178.361 173.999C178.442 174.133 178.557 174.239 178.691 174.305L182.772 176.329C182.831 176.359 182.885 176.402 182.93 176.455C182.973 176.509 183.005 176.572 183.025 176.64L184.61 182.09C184.659 182.269 184.761 182.425 184.902 182.533C185.042 182.641 185.212 182.695 185.384 182.686L185.39 182.685C185.561 182.681 185.726 182.614 185.858 182.496C185.99 182.378 186.081 182.215 186.119 182.034L186.725 179.301C186.746 179.211 186.789 179.128 186.849 179.063C186.91 178.997 186.986 178.95 187.069 178.928C187.13 178.91 187.193 178.906 187.255 178.917C187.318 178.927 187.377 178.951 187.43 178.988L194.863 183.97C194.971 184.042 195.093 184.085 195.219 184.095C195.345 184.105 195.472 184.081 195.587 184.026C195.703 183.971 195.804 183.887 195.884 183.78C195.963 183.674 196.017 183.548 196.043 183.414L199.906 162.557C199.936 162.4 199.923 162.237 199.871 162.087C199.819 161.937 199.729 161.806 199.612 161.709C199.494 161.612 199.354 161.553 199.207 161.539C199.06 161.525 198.912 161.556 198.781 161.629L198.522 161.772L178.659 172.771ZM178.82 173.996C178.74 173.956 178.671 173.892 178.623 173.812C178.574 173.731 178.547 173.638 178.546 173.542C178.544 173.446 178.567 173.351 178.612 173.268C178.658 173.186 178.724 173.119 178.802 173.075L198.66 162.079L198.924 161.933C199.003 161.89 199.091 161.871 199.179 161.88C199.267 161.889 199.351 161.924 199.421 161.982C199.492 162.04 199.546 162.118 199.577 162.208C199.609 162.297 199.616 162.395 199.599 162.489L195.736 183.346C195.721 183.427 195.688 183.502 195.64 183.566C195.592 183.63 195.531 183.68 195.462 183.713C195.392 183.746 195.317 183.76 195.241 183.754C195.166 183.748 195.093 183.723 195.028 183.679L187.595 178.698C187.522 178.648 187.442 178.611 187.357 178.591C187.236 178.561 187.11 178.563 186.99 178.597C186.973 178.601 186.956 178.607 186.939 178.613L186.938 178.613C186.811 178.658 186.697 178.738 186.607 178.844C186.516 178.95 186.452 179.08 186.421 179.221L185.814 181.956C185.792 182.065 185.737 182.163 185.657 182.233C185.578 182.304 185.478 182.343 185.376 182.345L185.372 182.345C185.269 182.352 185.167 182.32 185.083 182.255C184.999 182.19 184.937 182.096 184.909 181.988L183.324 176.538C183.308 176.48 183.286 176.424 183.258 176.372L183.258 176.37C183.232 176.32 183.2 176.273 183.165 176.23C183.131 176.187 183.092 176.149 183.051 176.115C183.004 176.078 182.954 176.046 182.901 176.02L178.82 173.996Z"/><path fill="#E5E5E5" d="M183.05 176.115L198.68 162.252C198.694 162.24 198.709 162.229 198.724 162.22C198.788 162.181 198.863 162.167 198.935 162.182C199.007 162.196 199.072 162.237 199.119 162.298C199.166 162.359 199.192 162.436 199.192 162.516C199.192 162.595 199.167 162.672 199.12 162.734L187.357 178.591L187.15 178.871L186.906 178.657L186.937 178.613L186.939 178.613L198.876 162.52L183.258 176.37L183.258 176.372L183.19 176.431L182.991 176.168L183.05 176.115Z"/></svg>