<svg viewBox="0 0 24 25" fill="none" xmlns="http://www.w3.org/2000/svg">
<path d="M12 0.390625C5.37097 0.390625 0 5.81055 0 12.5C0 19.1895 5.37097 24.6094 12 24.6094C18.629 24.6094 24 19.1895 24 12.5C24 5.81055 18.629 0.390625 12 0.390625ZM17.8935 8.68652L15.9242 18.0518C15.779 18.7158 15.3871 18.877 14.8403 18.5645L11.8403 16.333L10.3935 17.7393C10.2339 17.9004 10.0984 18.0371 9.78871 18.0371L10.0016 14.9561L15.5613 9.8877C15.8032 9.67285 15.5081 9.55078 15.1887 9.76562L8.31774 14.1309L5.35645 13.1982C4.7129 12.9932 4.69839 12.5488 5.49194 12.2363L17.0613 7.73437C17.5984 7.53906 18.0677 7.86621 17.8935 8.68652Z" fill="#50A6E1"/>
</svg>
