<svg xmlns="http://www.w3.org/2000/svg" width="295" height="147" fill="none" viewBox="0 0 295 147"><path fill="#39C555" d="M69.3988 127.915C68.6418 133.869 66 139.358 63.0546 144.639C62.9088 144.903 62.7629 145.162 62.6131 145.426H24.4538C23.7758 145.186 23.1093 144.922 22.447 144.639C20.0054 143.615 17.6868 142.32 15.535 140.779C3.12284 131.854 -1.65577 114.988 0.50492 99.877C1.84142 90.4839 5.97354 80.898 14.0131 75.8413C18.3786 73.1903 23.5853 72.2797 28.5939 73.2914C28.724 73.315 28.8542 73.3426 28.9843 73.374C33.1873 74.3185 36.933 76.6638 39.0662 80.4454C42.8987 87.2414 40.6158 95.6586 38.731 103.222C36.8502 110.789 35.8331 119.84 41.286 125.42C40.486 123.087 40.3231 120.584 40.8139 118.167C41.3047 115.751 42.4316 113.508 44.0786 111.671C45.7257 109.833 47.8335 108.466 50.1852 107.711C52.537 106.956 55.0479 106.839 57.4597 107.373C57.8539 107.456 58.2444 107.551 58.6308 107.669C59.5569 107.939 60.4496 108.313 61.2922 108.782C67.7231 112.367 70.3252 120.623 69.3988 127.915Z"/><path fill="#fff" d="M44.5191 144.639C45.3709 144.926 46.2303 145.186 47.0937 145.426H43.3599C42.6659 145.182 41.9772 144.92 41.2938 144.639C41.144 144.58 40.9902 144.517 40.8404 144.454C35.206 142.097 30.0173 138.555 26.0941 133.841C24.1716 131.56 22.6033 129.004 21.4416 126.258C20.1781 123.157 19.3758 119.887 19.0601 116.554C18.3503 109.715 19.0718 102.687 20.4282 95.9695C21.8272 89.0069 24.0867 82.2446 27.1547 75.8374C27.5253 75.0701 27.9065 74.3067 28.2981 73.5472C28.3257 73.4856 28.3665 73.4308 28.4176 73.3867C28.4687 73.3425 28.5288 73.31 28.5938 73.2914C28.6612 73.2788 28.7303 73.2795 28.7973 73.2937C28.8644 73.3079 28.9279 73.3352 28.9843 73.3741C29.1198 73.4516 29.2204 73.5781 29.2652 73.7275C29.3099 73.8769 29.2954 74.0378 29.2247 74.1768C26.0626 80.3305 23.6659 86.8468 22.0881 93.5809C20.5425 100.153 19.6633 107.027 19.9669 113.78C20.2506 120.092 21.9029 126.297 25.6525 131.46C29.1446 136.151 33.7389 139.914 39.0307 142.416C40.8092 143.276 42.6426 144.019 44.5191 144.639Z"/><path fill="#fff" d="M59.5688 145.426H58.1218C57.9168 145.166 57.7197 144.903 57.5264 144.639C54.6799 140.778 52.7395 136.328 51.8487 131.618C50.6351 125.021 51.5808 118.209 54.5457 112.19C55.3738 110.502 56.3487 108.891 57.4594 107.373C57.8537 107.456 58.2441 107.55 58.6305 107.669C55.7053 111.535 53.7381 116.037 52.8896 120.808C52.1831 124.981 52.3553 129.255 53.3953 133.358C54.4353 137.461 56.3202 141.303 58.9301 144.639C59.1391 144.907 59.3521 145.17 59.5688 145.426Z"/><path fill="#FFB8B8" d="M133.542 73.2948C133.696 72.6962 133.716 72.0712 133.602 71.4638C133.488 70.8564 133.241 70.2814 132.88 69.7792C132.519 69.2771 132.052 68.8601 131.512 68.5576C130.972 68.255 130.373 68.0743 129.755 68.0282L105.658 37.9601L99.6956 43.5065L125.151 72.2285C125.143 73.269 125.516 74.2765 126.202 75.0603C126.888 75.8441 127.838 76.3495 128.872 76.481C129.906 76.6124 130.953 76.3607 131.813 75.7734C132.674 75.1862 133.289 74.3043 133.542 73.2948Z"/><path fill="#CCC" d="M110.281 42.7365L102.665 48.5572C102.449 48.7228 102.199 48.8399 101.933 48.9004C101.667 48.9609 101.39 48.9635 101.123 48.908C100.856 48.8524 100.604 48.7401 100.384 48.5785C100.165 48.417 99.9823 48.2101 99.8498 47.9719L95.2108 39.6258C94.3681 38.5146 94.0014 37.1152 94.1909 35.7345C94.3805 34.3538 95.1109 33.1045 96.2219 32.2604C97.333 31.4163 98.7341 31.0464 100.118 31.2317C101.502 31.4171 102.756 32.1425 103.605 33.2491L110.448 39.8712C110.644 40.0609 110.797 40.2904 110.896 40.5443C110.995 40.7981 111.038 41.0703 111.022 41.3422C111.006 41.6141 110.932 41.8794 110.804 42.12C110.676 42.3606 110.497 42.5709 110.281 42.7365H110.281Z"/><path fill="#FFB8B8" d="M97.4912 24.5847C102.84 24.5847 107.175 20.2575 107.175 14.9197C107.175 9.58183 102.84 5.25464 97.4912 5.25464C92.1429 5.25464 87.8071 9.58183 87.8071 14.9197C87.8071 20.2575 92.1429 24.5847 97.4912 24.5847Z"/><path fill="#FFB8B8" d="M118.163 140.289H122.997L122.537 131.26L115.402 131.26L118.163 140.289Z"/><path fill="#2F2E41" d="M116.93 138.714L126.45 138.714H126.45C127.247 138.714 128.036 138.87 128.772 139.175C129.508 139.479 130.177 139.925 130.74 140.487C131.303 141.049 131.75 141.717 132.055 142.451C132.36 143.186 132.517 143.973 132.517 144.768V144.965L116.93 144.966L116.93 138.714Z"/><path fill="#FFB8B8" d="M66.6248 133.459L70.7372 135.994L75.1007 128.071L70.1241 124.964L66.6248 133.459Z"/><path fill="#2F2E41" d="M66.4051 131.472L74.5042 136.465L74.5045 136.465C75.1823 136.883 75.771 137.43 76.237 138.075C76.7029 138.72 77.037 139.45 77.2202 140.224C77.4034 140.998 77.4321 141.8 77.3047 142.585C77.1772 143.37 76.8961 144.122 76.4774 144.798L76.3737 144.966L63.1133 136.791L66.4051 131.472Z"/><path fill="#2F2E41" d="M117.814 137.642C117.454 137.642 117.104 137.532 116.808 137.328C116.512 137.124 116.286 136.836 116.159 136.5L98.6734 94.7775C98.6358 94.6756 98.5708 94.5861 98.4854 94.5187C98.4001 94.4513 98.2978 94.4087 98.1897 94.3956C98.0817 94.3825 97.9722 94.3993 97.8731 94.4444C97.7741 94.4894 97.6894 94.5608 97.6284 94.6507L73.6072 132.417C73.3722 132.768 73.0185 133.024 72.6105 133.137C72.2025 133.251 71.7673 133.214 71.384 133.034L68.0972 131.503C67.6762 131.305 67.3496 130.95 67.1873 130.515C67.025 130.08 67.0398 129.598 67.2286 129.174L86.9084 85.3921C86.4788 84.3487 82.2874 73.6355 88.7273 68.3427L88.7723 68.3147L106.235 60.5405L106.675 73.9099L124.081 134.182C124.146 134.409 124.166 134.646 124.138 134.881C124.11 135.115 124.036 135.342 123.919 135.547C123.802 135.752 123.646 135.932 123.458 136.076C123.271 136.22 123.056 136.325 122.827 136.385L118.268 137.583C118.12 137.622 117.967 137.642 117.814 137.642Z"/><path fill="#CCC" d="M106.499 40.9839C105.834 38.3205 104.892 35.6358 103.629 34.3964C103.164 33.9444 102.728 33.4647 102.322 32.9599C101.472 31.8917 100.403 31.0175 99.1867 30.3961C99.6318 30.1489 99.8927 29.8541 99.8927 29.5368C99.8927 28.6675 97.9509 27.9628 95.5555 27.9628C93.1602 27.9628 91.2184 28.6675 91.2184 29.5368C91.2243 29.6378 91.2501 29.7366 91.2943 29.8276C91.3385 29.9186 91.4003 30 91.4762 30.0671C89.912 30.7034 88.5528 31.756 87.5467 33.1101C86.5405 34.4642 85.926 36.0679 85.7701 37.7465C85.2099 43.7341 85.0464 51.3877 87.0095 56.229C88.6562 60.2323 88.7871 64.6968 87.3779 68.7894C87.2824 69.0744 87.2707 69.3808 87.3443 69.6722C87.4179 69.9636 87.5736 70.2278 87.793 70.4336C88.0125 70.6394 88.2865 70.7781 88.5825 70.8333C88.8785 70.8884 89.1841 70.8577 89.4632 70.7448L106.791 63.776C107.083 63.6587 107.332 63.457 107.508 63.1968C107.684 62.9367 107.778 62.6299 107.778 62.316V51.7317C107.792 48.1105 107.363 44.5012 106.499 40.9839Z"/><path fill="#FFB8B8" d="M73.3458 84.5775C73.949 84.4377 74.5141 84.1676 75.0014 83.7863C75.4886 83.4049 75.8862 82.9215 76.1661 82.3702C76.4459 81.8189 76.6013 81.2131 76.6211 80.5954C76.641 79.9777 76.5249 79.3632 76.2811 78.7951L89.8385 43.113L82.9634 41.3414L70.4234 76.6561C69.4943 77.1282 68.771 77.924 68.3906 78.8927C68.0102 79.8615 67.999 80.9358 68.3592 81.9123C68.7194 82.8887 69.426 83.6993 70.3451 84.1905C71.2641 84.6817 72.3318 84.8194 73.3458 84.5775V84.5775Z"/><path fill="#CCC" d="M89.7818 49.8836L81.0943 45.8251C80.8471 45.7096 80.6278 45.5423 80.4512 45.3346C80.2746 45.1269 80.145 44.8837 80.0711 44.6214C79.9973 44.3592 79.9809 44.0842 80.0231 43.8151C80.0653 43.546 80.1652 43.2891 80.3158 43.062L85.5956 35.1042C86.1953 33.8462 87.2701 32.8768 88.5846 32.4083C89.8991 31.9398 91.3461 32.0104 92.6086 32.6047C93.871 33.199 94.8459 34.2685 95.3198 35.5788C95.7936 36.8891 95.7277 38.3335 95.1365 39.5954L92.4064 48.7103C92.3282 48.9713 92.1945 49.2123 92.0145 49.4171C91.8345 49.6218 91.6124 49.7854 91.3633 49.8968C91.1142 50.0081 90.844 50.0646 90.5711 50.0623C90.2982 50.06 90.029 49.9991 89.7818 49.8836Z"/><path fill="#2F2E41" d="M106.387 12.5408C106.823 12.5924 107.266 12.5126 107.657 12.3116C108.371 11.8451 108.301 10.7846 108.059 9.96737C107.457 8.00848 106.37 6.23257 104.898 4.80354C103.427 3.37451 101.619 2.33839 99.6403 1.7908C98.2616 1.42512 96.5171 1.43925 95.7284 2.62561C93.7464 1.30788 91.3569 0.742647 88.9931 1.03241C86.6294 1.32217 84.4479 2.44775 82.8444 4.20502C81.227 5.97746 80.2999 8.28797 79.8195 10.6369C78.992 14.6831 75.4482 23.0295 77.4113 26.6648C78.7176 29.0838 84.7294 27.199 87.2724 28.2527C89.8154 29.3063 92.9062 29.1882 95.1651 27.6168C97.4239 26.0454 98.6104 22.9427 97.642 20.3702C97.2675 19.3754 96.6182 18.5114 96.106 17.5797C95.5938 16.648 95.2105 15.571 95.4391 14.533C95.7951 12.9167 103.439 12.4802 106.387 12.5408Z"/><path fill="#3F3D56" d="M188.075 145.032C188.075 145.084 188.065 145.135 188.045 145.183C188.026 145.231 187.997 145.275 187.96 145.311C187.923 145.348 187.88 145.377 187.832 145.396C187.784 145.416 187.733 145.426 187.681 145.426H0.394287C0.289716 145.426 0.189427 145.384 0.115484 145.311C0.0415406 145.237 0 145.137 0 145.032C0 144.928 0.0415406 144.828 0.115484 144.754C0.189427 144.68 0.289716 144.639 0.394287 144.639H187.681C187.733 144.639 187.784 144.649 187.832 144.669C187.88 144.688 187.923 144.717 187.96 144.754C187.997 144.79 188.026 144.834 188.045 144.882C188.065 144.929 188.075 144.981 188.075 145.032Z"/><path fill="#39C555" d="M217.405 147C225.026 147 231.205 145.943 231.205 144.639C231.205 143.335 225.026 142.278 217.405 142.278C209.783 142.278 203.605 143.335 203.605 144.639C203.605 145.943 209.783 147 217.405 147Z"/><path fill="#3F3D56" d="M294.606 145.599H241.771C241.667 145.599 241.566 145.558 241.492 145.484C241.418 145.41 241.377 145.31 241.377 145.206C241.377 145.101 241.418 145.001 241.492 144.927C241.566 144.854 241.667 144.812 241.771 144.812H294.606C294.71 144.812 294.811 144.854 294.885 144.927C294.958 145.001 295 145.101 295 145.206C295 145.31 294.958 145.41 294.885 145.484C294.811 145.558 294.71 145.599 294.606 145.599Z"/><path fill="#39C555" d="M206.147 42.2101C206.148 37.923 207.621 33.7657 210.321 30.4311C213.02 27.0966 216.784 24.7863 220.983 23.8854C218.245 23.2989 215.41 23.3311 212.686 23.9796C209.962 24.6281 207.417 25.8764 205.239 27.6333C203.061 29.3902 201.304 31.611 200.097 34.1332C198.89 36.6554 198.264 39.4151 198.264 42.2101C198.264 45.0052 198.89 47.7649 200.097 50.2871C201.304 52.8093 203.061 55.0301 205.239 56.787C207.417 58.5438 209.962 59.7922 212.686 60.4407C215.41 61.0892 218.245 61.1214 220.983 60.5349C216.784 59.634 213.02 57.3237 210.321 53.9891C207.621 50.6546 206.148 46.4972 206.147 42.2101Z"/><path fill="#39C555" d="M185.71 42.2102C185.71 31.9851 189.458 22.1133 196.245 14.4542C203.033 6.79512 212.392 1.87751 222.561 0.627708C216.66 -0.0942027 210.673 0.442387 204.996 2.20198C199.319 3.96158 194.081 6.90407 189.629 10.8349C185.176 14.7656 181.611 19.5951 179.168 25.0039C176.725 30.4126 175.461 36.2773 175.458 42.2102C175.458 61.0025 203.149 113.996 213.55 133.237C213.927 133.937 214.488 134.522 215.172 134.93C215.856 135.338 216.638 135.553 217.435 135.553C218.231 135.553 219.013 135.338 219.697 134.93C220.381 134.522 220.942 133.937 221.32 133.237C221.709 132.517 222.125 131.744 222.561 130.933C211.364 110.072 185.71 60.2992 185.71 42.2102Z"/><path fill="#3F3D56" d="M217.471 136.024C216.601 136.031 215.747 135.799 215.001 135.354C214.254 134.909 213.645 134.268 213.239 133.501C201.771 112.286 175.1 60.9303 175.1 42.2875C175.1 31.0721 179.564 20.3162 187.51 12.3857C195.456 4.45527 206.234 0 217.471 0C228.708 0 239.486 4.45527 247.432 12.3857C255.378 20.3162 259.842 31.0721 259.842 42.2875C259.842 60.932 233.17 112.287 221.703 133.501C221.297 134.268 220.687 134.909 219.941 135.354C219.195 135.799 218.34 136.031 217.471 136.024ZM217.471 0.787023C206.446 0.799432 195.877 5.17578 188.082 12.9559C180.286 20.7361 175.901 31.2847 175.889 42.2875C175.889 60.751 202.494 111.965 213.933 133.127C214.277 133.765 214.787 134.298 215.41 134.669C216.033 135.041 216.745 135.237 217.471 135.237C218.196 135.237 218.908 135.041 219.531 134.669C220.154 134.298 220.665 133.765 221.009 133.127C232.448 111.966 259.053 60.7527 259.053 42.2875C259.041 31.2847 254.656 20.7361 246.86 12.9559C239.065 5.17578 228.495 0.799436 217.471 0.787023Z"/><path fill="#3F3D56" d="M217.471 61.423C213.679 61.423 209.972 60.3008 206.819 58.1982C203.666 56.0955 201.208 53.107 199.757 49.6104C198.306 46.1139 197.926 42.2663 198.666 38.5544C199.406 34.8424 201.232 31.4328 203.913 28.7566C206.594 26.0804 210.011 24.2579 213.73 23.5196C217.449 22.7812 221.305 23.1601 224.808 24.6085C228.311 26.0568 231.306 28.5095 233.413 31.6563C235.519 34.8032 236.644 38.5028 236.644 42.2875C236.638 47.3607 234.616 52.2246 231.022 55.8119C227.428 59.3992 222.554 61.4172 217.471 61.423ZM217.471 23.9389C213.835 23.9388 210.28 25.0149 207.257 27.031C204.233 29.0472 201.877 31.9128 200.485 35.2655C199.094 38.6183 198.73 42.3075 199.439 45.8668C200.149 49.4261 201.899 52.6955 204.471 55.2616C207.042 57.8278 210.318 59.5753 213.884 60.2833C217.45 60.9913 221.147 60.628 224.506 59.2393C227.865 57.8505 230.737 55.4988 232.757 52.4814C234.777 49.464 235.855 45.9165 235.855 42.2875C235.85 37.4229 233.911 32.7591 230.465 29.3192C227.018 25.8794 222.345 23.9445 217.471 23.9389V23.9389Z"/></svg>